<?xml version="1.0" encoding="UTF-8" standalone="no"?>
<!DOCTYPE svg PUBLIC "-//W3C//DTD SVG 1.1//EN"
 "http://www.w3.org/Graphics/SVG/1.1/DTD/svg11.dtd">
<!-- Generated by graphviz version 2.38.0 (20140413.2041)
 -->
<!-- Title: Perl Pages: 1 -->
<svg width="380pt" height="434pt"
 viewBox="0.00 0.00 379.95 433.80" xmlns="http://www.w3.org/2000/svg" xmlns:xlink="http://www.w3.org/1999/xlink">
<g id="graph0" class="graph" transform="scale(1 1) rotate(0) translate(4 429.8)">
<title>Perl</title>
<polygon fill="white" stroke="none" points="-4,4 -4,-429.8 375.951,-429.8 375.951,4 -4,4"/>
<!-- DPRECIPS_XFU -->
<g id="node1" class="node"><title>DPRECIPS_XFU</title>
<polygon fill="none" stroke="black" points="365.141,-41.4019 248.467,-41.4019 248.467,-0.198095 365.141,-0.198095 365.141,-41.4019"/>
<text text-anchor="middle" x="306.804" y="-25" font-family="Times,serif" font-size="14.00">DPRECIPS_XFU</text>
<text text-anchor="middle" x="306.804" y="-8.2" font-family="Times,serif" font-size="14.00">162</text>
</g>
<!-- COPY3_XFU -->
<g id="node2" class="node"><title>COPY3_XFU</title>
<polygon fill="none" stroke="black" points="354.632,-149.8 258.975,-149.8 258.975,-113.8 354.632,-113.8 354.632,-149.8"/>
<text text-anchor="middle" x="306.804" y="-127.6" font-family="Times,serif" font-size="14.00">COPY3_XFU</text>
</g>
<!-- COPY3_CFU -->
<g id="node3" class="node"><title>COPY3_CFU</title>
<polygon fill="none" stroke="black" points="353.863,-371.8 259.744,-371.8 259.744,-335.8 353.863,-335.8 353.863,-371.8"/>
<text text-anchor="middle" x="306.804" y="-349.6" font-family="Times,serif" font-size="14.00">COPY3_CFU</text>
</g>
<!-- MEANWIND_XFU -->
<g id="node4" class="node"><title>MEANWIND_XFU</title>
<polygon fill="none" stroke="black" points="372.099,-209.402 241.509,-209.402 241.509,-168.198 372.099,-168.198 372.099,-209.402"/>
<text text-anchor="middle" x="306.804" y="-193" font-family="Times,serif" font-size="14.00">MEANWIND_XFU</text>
<text text-anchor="middle" x="306.804" y="-176.2" font-family="Times,serif" font-size="14.00">80</text>
</g>
<!-- COPY1_CFU -->
<g id="node5" class="node"><title>COPY1_CFU</title>
<polygon fill="none" stroke="black" points="353.863,-317.8 259.744,-317.8 259.744,-281.8 353.863,-281.8 353.863,-317.8"/>
<text text-anchor="middle" x="306.804" y="-295.6" font-family="Times,serif" font-size="14.00">COPY1_CFU</text>
</g>
<!-- COPY31M_CFU -->
<g id="node6" class="node"><title>COPY31M_CFU</title>
<polygon fill="none" stroke="black" points="363.807,-263.8 249.801,-263.8 249.801,-227.8 363.807,-227.8 363.807,-263.8"/>
<text text-anchor="middle" x="306.804" y="-241.6" font-family="Times,serif" font-size="14.00">COPY31M_CFU</text>
</g>
<!-- ACCUM3_CFU -->
<g id="node7" class="node"><title>ACCUM3_CFU</title>
<polygon fill="none" stroke="black" points="360.861,-425.8 252.746,-425.8 252.746,-389.8 360.861,-389.8 360.861,-425.8"/>
<text text-anchor="middle" x="306.804" y="-403.6" font-family="Times,serif" font-size="14.00">ACCUM3_CFU</text>
</g>
<!-- CPG_DIA_FLU -->
<g id="node8" class="node"><title>CPG_DIA_FLU</title>
<polygon fill="none" stroke="black" points="108.313,-236.402 0.228335,-236.402 0.228335,-195.198 108.313,-195.198 108.313,-236.402"/>
<text text-anchor="middle" x="54.2707" y="-220" font-family="Times,serif" font-size="14.00">CPG_DIA_FLU</text>
<text text-anchor="middle" x="54.2707" y="-203.2" font-family="Times,serif" font-size="14.00">159</text>
</g>
<!-- CPCFU -->
<g id="node9" class="node"><title>CPCFU</title>
<polygon fill="none" stroke="black" points="205.445,-320.402 144.753,-320.402 144.753,-279.198 205.445,-279.198 205.445,-320.402"/>
<text text-anchor="middle" x="175.099" y="-304" font-family="Times,serif" font-size="14.00">CPCFU</text>
<text text-anchor="middle" x="175.099" y="-287.2" font-family="Times,serif" font-size="14.00">338</text>
</g>
<!-- CPG_DIA_FLU&#45;&#45;CPCFU -->
<g id="edge1" class="edge"><title>CPG_DIA_FLU&#45;&#45;CPCFU</title>
<path fill="none" stroke="black" d="M84.644,-236.564C102.925,-249.487 126.356,-266.051 144.652,-278.984"/>
</g>
<!-- CPXFU -->
<g id="node10" class="node"><title>CPXFU</title>
<polygon fill="none" stroke="black" points="205.714,-152.402 144.484,-152.402 144.484,-111.198 205.714,-111.198 205.714,-152.402"/>
<text text-anchor="middle" x="175.099" y="-136" font-family="Times,serif" font-size="14.00">CPXFU</text>
<text text-anchor="middle" x="175.099" y="-119.2" font-family="Times,serif" font-size="14.00">376</text>
</g>
<!-- CPG_DIA_FLU&#45;&#45;CPXFU -->
<g id="edge2" class="edge"><title>CPG_DIA_FLU&#45;&#45;CPXFU</title>
<path fill="none" stroke="black" d="M84.644,-195.036C102.925,-182.113 126.356,-165.549 144.652,-152.616"/>
</g>
<!-- CPCFU&#45;&#45;COPY3_CFU -->
<g id="edge8" class="edge"><title>CPCFU&#45;&#45;COPY3_CFU</title>
<path fill="none" stroke="black" d="M205.531,-312.053C222.273,-319.024 243.559,-327.886 262.208,-335.65"/>
</g>
<!-- CPCFU&#45;&#45;COPY1_CFU -->
<g id="edge9" class="edge"><title>CPCFU&#45;&#45;COPY1_CFU</title>
<path fill="none" stroke="black" d="M205.531,-299.8C221.526,-299.8 241.668,-299.8 259.695,-299.8"/>
</g>
<!-- CPCFU&#45;&#45;COPY31M_CFU -->
<g id="edge10" class="edge"><title>CPCFU&#45;&#45;COPY31M_CFU</title>
<path fill="none" stroke="black" d="M205.531,-287.547C222.273,-280.576 243.559,-271.714 262.208,-263.95"/>
</g>
<!-- CPCFU&#45;&#45;ACCUM3_CFU -->
<g id="edge7" class="edge"><title>CPCFU&#45;&#45;ACCUM3_CFU</title>
<path fill="none" stroke="black" d="M188.65,-320.511C200.433,-338.488 219.527,-364.173 241.656,-380.8 246.003,-384.066 250.804,-387.019 255.765,-389.666"/>
</g>
<!-- CPXFU&#45;&#45;DPRECIPS_XFU -->
<g id="edge6" class="edge"><title>CPXFU&#45;&#45;DPRECIPS_XFU</title>
<path fill="none" stroke="black" d="M189.044,-110.947C200.948,-93.1234 219.999,-67.7448 241.656,-50.8 245.917,-47.4666 250.608,-44.3928 255.455,-41.5879"/>
</g>
<!-- CPXFU&#45;&#45;COPY3_XFU -->
<g id="edge4" class="edge"><title>CPXFU&#45;&#45;COPY3_XFU</title>
<path fill="none" stroke="black" d="M205.856,-131.8C221.562,-131.8 241.198,-131.8 258.899,-131.8"/>
</g>
<!-- CPXFU&#45;&#45;MEANWIND_XFU -->
<g id="edge3" class="edge"><title>CPXFU&#45;&#45;MEANWIND_XFU</title>
<path fill="none" stroke="black" d="M205.856,-144.877C221.562,-151.779 241.198,-160.409 258.899,-168.187"/>
</g>
<!-- COPY1_XFU -->
<g id="node11" class="node"><title>COPY1_XFU</title>
<polygon fill="none" stroke="black" points="354.632,-95.8 258.975,-95.8 258.975,-59.8 354.632,-59.8 354.632,-95.8"/>
<text text-anchor="middle" x="306.804" y="-73.6" font-family="Times,serif" font-size="14.00">COPY1_XFU</text>
</g>
<!-- CPXFU&#45;&#45;COPY1_XFU -->
<g id="edge5" class="edge"><title>CPXFU&#45;&#45;COPY1_XFU</title>
<path fill="none" stroke="black" d="M205.856,-119.411C222.609,-112.436 243.834,-103.6 262.411,-95.8657"/>
</g>
</g>
</svg>
